<?xml version="1.0" encoding="UTF-8"?>
<svg version="1.1" xmlns="http://www.w3.org/2000/svg" width="300" height="300">
<path d="M0 0 C99 0 198 0 300 0 C300 99 300 198 300 300 C201 300 102 300 0 300 C0 201 0 102 0 0 Z " fill="#FEFEFE" transform="translate(0,0)"/>
<path d="M0 0 C5.94 0 11.88 0 18 0 C18 0.66 18 1.32 18 2 C19.1446875 2.1546875 19.1446875 2.1546875 20.3125 2.3125 C23.28208444 3.07216114 24.13390675 3.63663834 26 6 C26.86050579 9.76471281 26.82397282 13.49853841 24.9453125 16.921875 C23.625 18.5625 23.625 18.5625 21 21 C20.34 21 19.68 21 19 21 C19.34933594 21.47050781 19.69867188 21.94101563 20.05859375 22.42578125 C20.51363281 23.04839844 20.96867187 23.67101562 21.4375 24.3125 C21.88996094 24.92738281 22.34242188 25.54226562 22.80859375 26.17578125 C24 28 24 28 25 31 C25.66 31.33 26.32 31.66 27 32 C27 32.66 27 33.32 27 34 C29.28045094 33.14365013 29.28045094 33.14365013 29.96484375 30.41796875 C30.61090806 28.27220495 31.25674311 26.1263721 31.90234375 23.98046875 C32.9636024 21.09883051 34.14724487 19.4010194 36 17 C36.90657059 15.04428244 37.75801072 13.06237459 38.5625 11.0625 C38.97628906 10.04285156 39.39007813 9.02320313 39.81640625 7.97265625 C40.20699219 6.99167969 40.59757812 6.01070312 41 5 C41.57041016 3.57494141 41.57041016 3.57494141 42.15234375 2.12109375 C42.43207031 1.42113281 42.71179688 0.72117187 43 0 C43.99 0 44.98 0 46 0 C46.24878906 0.80695313 46.49757812 1.61390625 46.75390625 2.4453125 C48.24822927 6.70811485 50.06821344 10.76599945 51.9375 14.875 C58.3343708 28.95048936 58.3343708 28.95048936 60 36 C58.35 36 56.7 36 55 36 C54.01 33.03 53.02 30.06 52 27 C46.72 26.67 41.44 26.34 36 26 C35.505 28.475 35.505 28.475 35 31 C34.36562656 32.6792238 33.70710678 34.35008418 33 36 C19.51462535 37.06865233 19.51462535 37.06865233 15.890625 34.51171875 C14.20515306 32.11735713 13 29.98214826 13 27 C12.34 27 11.68 27 11 27 C11 26.01 11 25.02 11 24 C10.34 24 9.68 24 9 24 C9 27.96 9 31.92 9 36 C6.03 36 3.06 36 0 36 C0 24.12 0 12.24 0 0 Z " fill="#446385" transform="translate(160,122)"/>
<path d="M0 0 C3.073125 -0.04125 6.14625 -0.0825 9.3125 -0.125 C10.27712158 -0.14320801 11.24174316 -0.16141602 12.2355957 -0.18017578 C12.99960693 -0.1851709 13.76361816 -0.19016602 14.55078125 -0.1953125 C15.72120972 -0.21102295 15.72120972 -0.21102295 16.9152832 -0.22705078 C19 0 19 0 22 2 C22 2.66 22 3.32 22 4 C22.66 4 23.32 4 24 4 C24.05447047 5.41623216 24.09300508 6.83308191 24.125 8.25 C24.14820313 9.03890625 24.17140625 9.8278125 24.1953125 10.640625 C23.9828378 13.20731941 23.28654105 14.7916067 22 17 C22.639375 17.309375 23.27875 17.61875 23.9375 17.9375 C26 19 26 19 27 20 C27.44272663 29.00210822 27.44272663 29.00210822 25 32 C19.69872288 35.42234346 15.19844156 35.36447238 9.125 35.1875 C6.11375 35.125625 3.1025 35.06375 0 35 C0 23.45 0 11.9 0 0 Z " fill="#1C4570" transform="translate(129,123)"/>
<path d="M0 0 C0.99 1.32 1.98 2.64 3 4 C3.33 3.01 3.66 2.02 4 1 C7.465 0.505 7.465 0.505 11 0 C11.66 1.98 12.32 3.96 13 6 C13.7734375 5.7215625 13.7734375 5.7215625 14.5625 5.4375 C18.83828911 4.67005067 22.93049513 5.69442718 27.0625 6.875 C30.26896052 7.32094776 30.26896052 7.32094776 33.1875 4.625 C34.5796875 3.325625 34.5796875 3.325625 36 2 C36.99 1.67 37.98 1.34 39 1 C39 1.66 39 2.32 39 3 C38.34 3 37.68 3 37 3 C36.80664062 3.59167969 36.61328125 4.18335938 36.4140625 4.79296875 C36.15367188 5.58316406 35.89328125 6.37335938 35.625 7.1875 C35.24214844 8.35345703 35.24214844 8.35345703 34.8515625 9.54296875 C33.97793078 12.06367679 33.00879602 14.53064278 32 17 C32.95261719 16.96519531 33.90523437 16.93039063 34.88671875 16.89453125 C36.14097656 16.86746094 37.39523438 16.84039062 38.6875 16.8125 C39.92886719 16.77769531 41.17023438 16.74289063 42.44921875 16.70703125 C46.18564321 17.0153171 48.00629483 17.81911727 51 20 C48.55576175 21.22211912 47.21365222 20.97136888 44.5 20.8125 C39.47860993 20.74738111 35.90828875 21.98740336 31.3515625 23.9765625 C20.96486367 28.49701946 8.72370334 28.34016989 -2 25 C-2.99 24.01 -3.98 23.02 -5 22 C1.435 21.505 1.435 21.505 8 21 C7.05125 19.96875 6.1025 18.9375 5.125 17.875 C0.27733816 12.1698508 -0.25028268 7.25819773 0 0 Z " fill="#D8D9D6" transform="translate(40,133)"/>
<path d="M0 0 C5.82248856 -0.37164821 10.64814628 0.62382055 16 3 C16.66 3.66 17.32 4.32 18 5 C20.04614084 5.09092257 20.04614084 5.09092257 22.3125 4.875 C25.85543037 4.78942197 26.83854198 4.90245245 30 6.8125 C33.10778487 10.2116397 33.26782105 13.28611336 33.234375 17.79296875 C32.84102495 21.49701501 31.46191109 24.58887413 30 28 C30.56589844 28.12117188 31.13179687 28.24234375 31.71484375 28.3671875 C32.44832031 28.53476563 33.18179688 28.70234375 33.9375 28.875 C34.66839844 29.03742188 35.39929688 29.19984375 36.15234375 29.3671875 C38 30 38 30 39 32 C38.49984375 31.83628906 37.9996875 31.67257813 37.484375 31.50390625 C34.0736532 30.8121089 30.71264243 30.89495335 27.25 30.9375 C26.55261719 30.94201172 25.85523437 30.94652344 25.13671875 30.95117188 C23.42444197 30.9628998 21.71220967 30.98083347 20 31 C20.61937508 29.06069452 21.24570688 27.12360987 21.875 25.1875 C22.22304687 24.10855469 22.57109375 23.02960938 22.9296875 21.91796875 C24 19 24 19 26 16 C22.89517308 16.71439933 22.89517308 16.71439933 21.4375 19.125 C18.48242492 21.39813468 17.61026685 21.16769512 14 20.8125 C11.59241696 20.47852125 9.28566132 20.07628456 6.9375 19.44921875 C4.68204321 18.84942435 4.68204321 18.84942435 1 19 C-0.80619523 14.53763531 -1.11658501 11.68965706 0 7 C-1.32 6.34 -2.64 5.68 -4 5 C-0.97265625 4.75585938 -0.97265625 4.75585938 2.0546875 4.51171875 C4.39519216 4.12606964 4.39519216 4.12606964 6 1 C3.69 1.33 1.38 1.66 -1 2 C-0.67 1.34 -0.34 0.68 0 0 Z " fill="#E6E7E5" transform="translate(51,120)"/>
<path d="M0 0 C3.073125 -0.04125 6.14625 -0.0825 9.3125 -0.125 C10.27712158 -0.14320801 11.24174316 -0.16141602 12.2355957 -0.18017578 C12.99960693 -0.1851709 13.76361816 -0.19016602 14.55078125 -0.1953125 C15.72120972 -0.21102295 15.72120972 -0.21102295 16.9152832 -0.22705078 C19 0 19 0 22 2 C22 2.66 22 3.32 22 4 C22.66 4 23.32 4 24 4 C24.05447047 5.41623216 24.09300508 6.83308191 24.125 8.25 C24.14820313 9.03890625 24.17140625 9.8278125 24.1953125 10.640625 C23.97767636 13.26966951 23.46290812 14.81048189 22 17 C21.01 17.33 20.02 17.66 19 18 C19.33 18.99 19.66 19.98 20 21 C19.72428861 23.00875442 19.39764263 25.01178687 19 27 C14.05 27.495 14.05 27.495 9 28 C9 25.03 9 22.06 9 19 C10.134375 19.020625 11.26875 19.04125 12.4375 19.0625 C15.81575674 19.41577477 15.81575674 19.41577477 17 18 C15.35 18 13.7 18 12 18 C11.67 17.01 11.34 16.02 11 15 C10.34 14.67 9.68 14.34 9 14 C9 11.36 9 8.72 9 6 C9.66 6 10.32 6 11 6 C11 4.68 11 3.36 11 2 C6.545 2.495 6.545 2.495 2 3 C2.165 3.63035156 2.33 4.26070313 2.5 4.91015625 C3.30924565 9.91104147 3.03910324 14.90947579 2.9609375 19.96289062 C2.95320312 20.77822266 2.94546875 21.59355469 2.9375 22.43359375 C2.92589844 23.16634521 2.91429687 23.89909668 2.90234375 24.65405273 C3.01904733 27.45756457 3.53870633 30.232238 4 33 C9.94 33 15.88 33 22 33 C18.84685215 35.10209857 18.13896919 35.2434761 14.55078125 35.1953125 C13.78677002 35.19031738 13.02275879 35.18532227 12.2355957 35.18017578 C11.27097412 35.16196777 10.30635254 35.14375977 9.3125 35.125 C6.239375 35.08375 3.16625 35.0425 0 35 C0 23.45 0 11.9 0 0 Z " fill="#435F80" transform="translate(129,123)"/>
<path d="M0 0 C2.50004376 3.05077804 3.97966146 6.03095417 5.4375 9.6875 C8.42428336 17.04714881 11.51701209 24.26641491 15.265625 31.2734375 C16 33 16 33 16 36 C14.35 35.67 12.7 35.34 11 35 C10.01 32.03 9.02 29.06 8 26 C2.72 26 -2.56 26 -8 26 C-8.66 29.3 -9.32 32.6 -10 36 C-11.98 36 -13.96 36 -16 36 C-14.06375702 29.79522136 -11.74390859 23.89174281 -9 18 C-8.34 18 -7.68 18 -7 18 C-6.87496094 17.29230469 -6.74992187 16.58460938 -6.62109375 15.85546875 C-5.97743554 12.89626025 -5.09177403 10.15951081 -4.0625 7.3125 C-3.55396484 5.88357422 -3.55396484 5.88357422 -3.03515625 4.42578125 C-2 2 -2 2 0 0 Z " fill="#35567A" transform="translate(111,122)"/>
<path d="M0 0 C0.99 0 1.98 0 3 0 C3.4125 1.134375 3.825 2.26875 4.25 3.4375 C5.70079964 7.3108613 7.33030661 11.07852032 9.03125 14.84765625 C10.39625538 17.88038999 11.68993684 20.94318597 13 24 C13.35449219 24.76828125 13.70898438 25.5365625 14.07421875 26.328125 C14.62529297 27.52695313 14.62529297 27.52695313 15.1875 28.75 C15.53167969 29.48734375 15.87585938 30.2246875 16.23046875 30.984375 C17 33 17 33 17 36 C14.6875 36 14.6875 36 12 35 C10.58711853 32.38948072 9.864695 29.86714656 9 27 C4.05 26.67 -0.9 26.34 -6 26 C-6.99 28.97 -7.98 31.94 -9 35 C-11.475 35.495 -11.475 35.495 -14 36 C-12.42683104 27.15287159 -8.17297952 19.15722833 -4.39453125 11.07421875 C-2.74282418 7.43306058 -1.33016889 3.76881186 0 0 Z " fill="#3C5B7D" transform="translate(253,122)"/>
<path d="M0 0 C12 0 12 0 16 2 C18.08133467 5.122002 18.2737822 5.93266989 18.25 9.5 C18.25515625 10.2734375 18.2603125 11.046875 18.265625 11.84375 C18 14 18 14 16 17 C11.97658106 19.94019076 9.59378385 19 4 19 C4 24.28 4 29.56 4 35 C2.68 35 1.36 35 0 35 C0 23.45 0 11.9 0 0 Z " fill="#476382" transform="translate(223,123)"/>
<path d="M0 0 C0.495 0.99 0.495 0.99 1 2 C0.34 2 -0.32 2 -1 2 C-1.19335938 2.59167969 -1.38671875 3.18335938 -1.5859375 3.79296875 C-1.84632812 4.58316406 -2.10671875 5.37335938 -2.375 6.1875 C-2.75785156 7.35345703 -2.75785156 7.35345703 -3.1484375 8.54296875 C-4.02206922 11.06367679 -4.99120398 13.53064278 -6 16 C-5.04738281 15.96519531 -4.09476563 15.93039063 -3.11328125 15.89453125 C-1.85902344 15.86746094 -0.60476562 15.84039062 0.6875 15.8125 C1.92886719 15.77769531 3.17023438 15.74289063 4.44921875 15.70703125 C8.18564321 16.0153171 10.00629483 16.81911727 13 19 C10.55576175 20.22211912 9.21365222 19.97136888 6.5 19.8125 C1.47860993 19.74738111 -2.09171125 20.98740336 -6.6484375 22.9765625 C-15.52975793 26.84185478 -26.69437972 27.94681651 -35.875 24.5 C-36.90625 24.005 -37.9375 23.51 -39 23 C-39 22.67 -39 22.34 -39 22 C-32.73 22 -26.46 22 -20 22 C-20 21.34 -20 20.68 -20 20 C-20.99 19.67 -21.98 19.34 -23 19 C-27.04219856 14.02498639 -29.55237168 8.89110542 -32 3 C-32.33 2.34 -32.66 1.68 -33 1 C-29.73880742 1.94199988 -28.29439655 2.56052822 -26.375 5.42578125 C-25.92125 6.37839844 -25.4675 7.33101562 -25 8.3125 C-22.24175194 13.72263695 -20.01920056 17.99359981 -14 20 C-13.72929688 19.27941406 -13.45859375 18.55882812 -13.1796875 17.81640625 C-12.01212727 15.02895285 -10.67236512 12.5311405 -9.125 9.9375 C-8.63257812 9.10089844 -8.14015625 8.26429688 -7.6328125 7.40234375 C-5.524611 4.30056403 -3.38628433 1.69314216 0 0 Z " fill="#BDA579" transform="translate(78,134)"/>
<path d="M0 0 C5.61 0 11.22 0 17 0 C17.33 0.66 17.66 1.32 18 2 C14.57653445 5.14958831 11.55737263 5.56179109 7 6 C7.33 9.3 7.66 12.6 8 16 C8.763125 16.04125 9.52625 16.0825 10.3125 16.125 C13 17 13 17 14.8125 20.0625 C15.204375 21.031875 15.59625 22.00125 16 23 C13 24 13 24 10.9375 23.125 C9.9784375 22.568125 9.9784375 22.568125 9 22 C8.34 21.67 7.68 21.34 7 21 C7 25.29 7 29.58 7 34 C4.69 34 2.38 34 0 34 C0 22.78 0 11.56 0 0 Z " fill="#1B4570" transform="translate(161,123)"/>
<path d="M0 0 C0.99 0 1.98 0 3 0 C3.2475 0.78375 3.495 1.5675 3.75 2.375 C4.74828477 5.27002582 5.85755066 8.00387262 7.0625 10.8125 C9.01746544 15.60180194 9.66784692 19.85162719 10 25 C4.06 25 -1.88 25 -8 25 C-8 19.23815789 -7.42266714 16.98906961 -5.125 11.9375 C-4.59132812 10.75027344 -4.05765625 9.56304687 -3.5078125 8.33984375 C-2.76144531 6.68662109 -2.76144531 6.68662109 -2 5 C-1.32266105 3.33764199 -0.65137383 1.67270271 0 0 Z " fill="#546E8B" transform="translate(203,122)"/>
<path d="M0 0 C3.06630664 0.8974556 4.73038808 1.73038808 7 4 C7.71794388 7.77865199 7.81900956 11.49898991 5.94921875 14.92578125 C4.625 16.5625 4.625 16.5625 2 19 C1.34 19 0.68 19 0 19 C1.65 21.64 3.3 24.28 5 27 C3.68 26.67 2.36 26.34 1 26 C0.67 25.01 0.34 24.02 0 23 C-1.32848691 21.99357052 -2.66150329 20.99307821 -4 20 C-4 19.34 -4 18.68 -4 18 C-4.969375 17.690625 -5.93875 17.38125 -6.9375 17.0625 C-10 16 -10 16 -11 15 C-11.07205511 13.31391034 -11.08386068 11.62499341 -11.0625 9.9375 C-11.05347656 9.01839844 -11.04445312 8.09929687 -11.03515625 7.15234375 C-11.02355469 6.44207031 -11.01195312 5.73179687 -11 5 C-10.45730469 4.80664062 -9.91460937 4.61328125 -9.35546875 4.4140625 C-8.64003906 4.15367187 -7.92460937 3.89328125 -7.1875 3.625 C-6.47980469 3.36976562 -5.77210938 3.11453125 -5.04296875 2.8515625 C-2.75226641 1.9734231 -2.75226641 1.9734231 0 0 Z " fill="#284C75" transform="translate(179,124)"/>
<path d="M0 0 C0.33 0 0.66 0 1 0 C1.05447047 1.41623216 1.09300508 2.83308191 1.125 4.25 C1.14820313 5.03890625 1.17140625 5.8278125 1.1953125 6.640625 C0.97767636 9.26966951 0.46290812 10.81048189 -1 13 C-1.99 13.33 -2.98 13.66 -4 14 C-3.67 14.99 -3.34 15.98 -3 17 C-3.27571139 19.00875442 -3.60235737 21.01178687 -4 23 C-8.95 23.495 -8.95 23.495 -14 24 C-14 21.03 -14 18.06 -14 15 C-12.865625 15.020625 -11.73125 15.04125 -10.5625 15.0625 C-7.18424326 15.41577477 -7.18424326 15.41577477 -6 14 C-7.65 14 -9.3 14 -11 14 C-11.33 13.01 -11.66 12.02 -12 11 C-12.66 10.67 -13.32 10.34 -14 10 C-14 7.36 -14 4.72 -14 2 C-10.7 2.33 -7.4 2.66 -4 3 C-4 4.65 -4 6.3 -4 8 C-3.34 7.67 -2.68 7.34 -2 7 C-2 6.01 -2 5.02 -2 4 C-1.34 4 -0.68 4 0 4 C0 2.68 0 1.36 0 0 Z " fill="#466486" transform="translate(152,127)"/>
<path d="M0 0 C4.06441905 1.35480635 5.27712871 2.41338157 7.375 6.125 C8.1875 9.875 8.1875 9.875 8.375 13.125 C7.375 14.125 7.375 14.125 4 14.1875 C2.80375 14.166875 1.6075 14.14625 0.375 14.125 C-0.615 14.125 -1.605 14.125 -2.625 14.125 C-5.73757569 14.125 -7.73265685 13.95138376 -10.625 13.125 C-10.35714286 5.22321429 -10.35714286 5.22321429 -7 2.0625 C-3.625 0.125 -3.625 0.125 0 0 Z " fill="#F7F7F8" transform="translate(62.625,122.875)"/>
<path d="M0 0 C0.99 0 1.98 0 3 0 C3.61875 1.7015625 3.61875 1.7015625 4.25 3.4375 C5.72112858 7.39335772 7.42773006 11.20474712 9.23046875 15.01953125 C10 17 10 17 10 20 C9.34 20 8.68 20 8 20 C8 20.99 8 21.98 8 23 C3.71 23 -0.58 23 -5 23 C-5 22.01 -5 21.02 -5 20 C-4.34 20 -3.68 20 -3 20 C-2.80522261 18.37585622 -2.61940542 16.75063577 -2.4375 15.125 C-2.33308594 14.22007812 -2.22867188 13.31515625 -2.12109375 12.3828125 C-1.80325148 9.98346943 -1.80325148 9.98346943 -3 8 C-2.44140625 6.0546875 -2.44140625 6.0546875 -1.5625 3.875 C-1.27503906 3.15054688 -0.98757812 2.42609375 -0.69140625 1.6796875 C-0.34916016 0.84824219 -0.34916016 0.84824219 0 0 Z " fill="#496584" transform="translate(253,122)"/>
<path d="M0 0 C1.95674445 2.93511667 3.21589141 5.68554074 4.5625 8.9375 C4.99691406 9.97777344 5.43132812 11.01804688 5.87890625 12.08984375 C6.77014356 14.40333432 7.48165634 16.5830043 8 19 C6.35 19 4.7 19 3 19 C2.01 16.03 1.02 13.06 0 10 C-5.28 9.67 -10.56 9.34 -16 9 C-16.33 10.65 -16.66 12.3 -17 14 C-17.66 15.65 -18.32 17.3 -19 19 C-23.95 19 -28.9 19 -34 19 C-34.33 18.34 -34.66 17.68 -35 17 C-33.72125 17.04125 -32.4425 17.0825 -31.125 17.125 C-28.98128508 17.24212873 -28.98128508 17.24212873 -27 17 C-26.34 16.34 -25.68 15.68 -25 15 C-25 15.66 -25 16.32 -25 17 C-22.70250112 16.13554983 -22.70250112 16.13554983 -22 13.3125 C-21.67 12.219375 -21.34 11.12625 -21 10 C-20.39072482 7.98177598 -19.73519522 5.97583715 -19 4 C-18.34 3.67 -17.68 3.34 -17 3 C-17 4.65 -17 6.3 -17 8 C-8.585 7.505 -8.585 7.505 0 7 C0 4.69 0 2.38 0 0 Z " fill="#516986" transform="translate(212,139)"/>
<path d="M0 0 C0.8353125 0.7734375 0.8353125 0.7734375 1.6875 1.5625 C3.94085007 3.29476698 3.94085007 3.29476698 6.75 2.6875 C7.4925 2.460625 8.235 2.23375 9 2 C9.391875 2.886875 9.78375 3.77375 10.1875 4.6875 C12.06620264 8.12099103 14.2147294 10.29000698 17 13 C17 13.66 17 14.32 17 15 C15.21142578 15.09087891 15.21142578 15.09087891 13.38671875 15.18359375 C11.82030075 15.26801149 10.25389512 15.35265887 8.6875 15.4375 C7.90181641 15.47681641 7.11613281 15.51613281 6.30664062 15.55664062 C5.54931641 15.59853516 4.79199219 15.64042969 4.01171875 15.68359375 C3.31522217 15.72025146 2.61872559 15.75690918 1.90112305 15.79467773 C-0.2216572 15.95581153 -0.2216572 15.95581153 -3 17 C-3.99 16.01 -4.98 15.02 -6 14 C0.435 13.505 0.435 13.505 7 13 C5.5459375 11.453125 5.5459375 11.453125 4.0625 9.875 C1.28598399 6.66730738 0.21129205 4.33148694 0 0 Z " fill="#CBCBC5" transform="translate(41,141)"/>
<path d="M0 0 C2.56124439 3.11381607 4.06098519 6.20489422 5.5625 9.9375 C5.97628906 10.95714844 6.39007813 11.97679687 6.81640625 13.02734375 C7.20699219 14.00832031 7.59757812 14.98929688 8 16 C8.57041016 17.42505859 8.57041016 17.42505859 9.15234375 18.87890625 C9.43207031 19.57886719 9.71179688 20.27882812 10 21 C9.34 21 8.68 21 8 21 C7.67 20.34 7.34 19.68 7 19 C6.34 19.33 5.68 19.66 5 20 C2.52214277 16.33708062 1.51035831 13.3890815 1 9 C0.34 9 -0.32 9 -1 9 C-1.103125 10.11375 -1.20625 11.2275 -1.3125 12.375 C-1.539375 13.57125 -1.76625 14.7675 -2 16 C-2.99 16.66 -3.98 17.32 -5 18 C-5 17.34 -5 16.68 -5 16 C-5.66 16 -6.32 16 -7 16 C-5.42334814 9.95616788 -3.80824293 4.99011142 0 0 Z " fill="#476382" transform="translate(111,122)"/>
<path d="M0 0 C2.64 0 5.28 0 8 0 C7.375 1.9375 7.375 1.9375 6 4 C2.875 4.75 2.875 4.75 0 5 C0.66 5.33 1.32 5.66 2 6 C1.67 8.31 1.34 10.62 1 13 C-0.98 13 -2.96 13 -5 13 C-5.33 14.32 -5.66 15.64 -6 17 C-8 16 -8 16 -8.8125 13.8125 C-9.06570668 10.01439976 -8.09642755 8.14464133 -6 5 C-3.375 3.8125 -3.375 3.8125 -1 3 C-0.67 2.01 -0.34 1.02 0 0 Z " fill="#EBEBEA" transform="translate(49,121)"/>
<path d="M0 0 C6.0546875 -0.1953125 6.0546875 -0.1953125 8 0 C10 2 10 2 10.375 5.4375 C10 9 10 9 8.375 10.9375 C6 12 6 12 0 12 C0 8.04 0 4.08 0 0 Z " fill="#ECF1F3" transform="translate(227,127)"/>
<path d="M0 0 C0.33 0 0.66 0 1 0 C1 11.55 1 23.1 1 35 C-1 34 -1 34 -2 31 C-2.763125 31.639375 -3.52625 32.27875 -4.3125 32.9375 C-7.78736737 35.60425868 -10.19449984 36.12621141 -14.44921875 36.09765625 C-15.29677734 36.09443359 -16.14433594 36.09121094 -17.01757812 36.08789062 C-18.33918945 36.07532227 -18.33918945 36.07532227 -19.6875 36.0625 C-20.58017578 36.05798828 -21.47285156 36.05347656 -22.39257812 36.04882812 C-24.59511987 36.03704983 -26.79752599 36.02060164 -29 36 C-29 35.67 -29 35.34 -29 35 C-27.77023438 34.96261719 -26.54046875 34.92523438 -25.2734375 34.88671875 C-23.64059599 34.82102972 -22.00778482 34.75458341 -20.375 34.6875 C-19.56675781 34.66494141 -18.75851563 34.64238281 -17.92578125 34.61914062 C-13.00654524 34.39917479 -9.11182499 33.98107312 -5 31 C-3.8549861 28.30969997 -3.8549861 28.30969997 -3.625 25.3125 C-3.49351562 24.31863281 -3.36203125 23.32476562 -3.2265625 22.30078125 C-3.15179688 21.54152344 -3.07703125 20.78226563 -3 20 C-2.34 20 -1.68 20 -1 20 C-0.67 13.4 -0.34 6.8 0 0 Z " fill="#D7E0E5" transform="translate(159,123)"/>
<path d="M0 0 C12 0 12 0 14 1 C14 1.99 14 2.98 14 4 C10.7 4 7.4 4 4 4 C4 7.96 4 11.92 4 16 C3.67 16 3.34 16 3 16 C2.97314062 13.85423363 2.95366912 11.70837355 2.9375 9.5625 C2.92589844 8.36753906 2.91429687 7.17257813 2.90234375 5.94140625 C3 3 3 3 4 2 C3.01 1.67 2.02 1.34 1 1 C1 11.89 1 22.78 1 34 C1.66 34 2.32 34 3 34 C3 29.05 3 24.1 3 19 C3.33 19 3.66 19 4 19 C4 24.28 4 29.56 4 35 C2.68 35 1.36 35 0 35 C0 23.45 0 11.9 0 0 Z " fill="#526B88" transform="translate(223,123)"/>
<path d="M0 0 C0.33 0.66 0.66 1.32 1 2 C2.98 1.67 4.96 1.34 7 1 C6.125 7.75 6.125 7.75 5 10 C5.56589844 10.12117187 6.13179687 10.24234375 6.71484375 10.3671875 C7.81505859 10.61855469 7.81505859 10.61855469 8.9375 10.875 C9.66839844 11.03742188 10.39929688 11.19984375 11.15234375 11.3671875 C13 12 13 12 14 14 C13.49984375 13.83628906 12.9996875 13.67257813 12.484375 13.50390625 C9.0736532 12.8121089 5.71264243 12.89495335 2.25 12.9375 C1.55261719 12.94201172 0.85523437 12.94652344 0.13671875 12.95117188 C-1.57555803 12.9628998 -3.28779033 12.98083347 -5 13 C-4.35780498 11.01964979 -3.71114356 9.04074744 -3.0625 7.0625 C-2.70285156 5.96035156 -2.34320313 4.85820312 -1.97265625 3.72265625 C-1 1 -1 1 0 0 Z " fill="#D5D5D0" transform="translate(76,138)"/>
<path d="M0 0 C1.67293936 0.30027117 3.33985384 0.63557767 5 1 C5.99 0.67 6.98 0.34 8 0 C8 0.99 8 1.98 8 3 C8.99 3 9.98 3 11 3 C11 2.34 11 1.68 11 1 C11.99 1.33 12.98 1.66 14 2 C14.33 3.65 14.66 5.3 15 7 C9.72 7 4.44 7 -1 7 C-1.33 5.35 -1.66 3.7 -2 2 C-1.34 1.34 -0.68 0.68 0 0 Z " fill="#D9DEE0" transform="translate(231,173)"/>
<path d="M0 0 C5.75 1.75 5.75 1.75 8 4 C8.5571205 12.63536776 8.5571205 12.63536776 6 16 C5.01 16.33 4.02 16.66 3 17 C3 16.01 3 15.02 3 14 C3.99 14 4.98 14 6 14 C5.34 12.35 4.68 10.7 4 9 C2.02 9.99 2.02 9.99 0 11 C0.020625 9.88625 0.04125 8.7725 0.0625 7.625 C0.26380718 4.16784079 0.26380718 4.16784079 -1 2 C-0.67 1.34 -0.34 0.68 0 0 Z M0 12 C-1 13 -1 13 -2.84765625 13.09765625 C-4.8984375 13.06510417 -6.94921875 13.03255208 -9 13 C-9 12.67 -9 12.34 -9 12 C-5.62182575 11.15545644 -3.32534757 10.89155081 0 12 Z " fill="#264B73" transform="translate(148,139)"/>
<path d="M0 0 C3 1 3 1 4.16796875 3.21484375 C4.50441406 4.11332031 4.84085937 5.01179687 5.1875 5.9375 C5.53167969 6.83339844 5.87585938 7.72929687 6.23046875 8.65234375 C7 11 7 11 7 13 C3.37 13 -0.26 13 -4 13 C-1.125 3.375 -1.125 3.375 0 0 Z " fill="#E5ECEE" transform="translate(253,131)"/>
<path d="M0 0 C3.96 0 7.92 0 12 0 C12 0.66 12 1.32 12 2 C13.98 1.67 15.96 1.34 18 1 C18.33 2.65 18.66 4.3 19 6 C18.34 6 17.68 6 17 6 C17 4.68 17 3.36 17 2 C16.34 2 15.68 2 15 2 C15 3.32 15 4.64 15 6 C14.01 5.67 13.02 5.34 12 5 C12 4.34 12 3.68 12 3 C11.34 3 10.68 3 10 3 C10 4.32 10 5.64 10 7 C9.01 6.67 8.02 6.34 7 6 C7 5.01 7 4.02 7 3 C6.01 3.495 6.01 3.495 5 4 C4.67 4.99 4.34 5.98 4 7 C3.01 7 2.02 7 1 7 C0.67 4.69 0.34 2.38 0 0 Z " fill="#BDC4CA" transform="translate(115,173)"/>
<path d="M0 0 C2.64 0 5.28 0 8 0 C8 0.33 8 0.66 8 1 C6.35 1.33 4.7 1.66 3 2 C3 6.29 3 10.58 3 15 C5.97 15.495 5.97 15.495 9 16 C9 16.33 9 16.66 9 17 C7.02 17.33 5.04 17.66 3 18 C2.67 22.95 2.34 27.9 2 33 C1.34 33 0.68 33 0 33 C0 22.11 0 11.22 0 0 Z " fill="#204571" transform="translate(224,124)"/>
<path d="M0 0 C0.66 0 1.32 0 2 0 C2.67595315 1.41225926 3.34040059 2.83002905 4 4.25 C4.37125 5.03890625 4.7425 5.8278125 5.125 6.640625 C6 9 6 9 6 13 C2.7 13 -0.6 13 -4 13 C-3.27991594 8.39146203 -1.68704061 4.32762591 0 0 Z " fill="#E1E8EB" transform="translate(203,131)"/>
<path d="M0 0 C0.66 0 1.32 0 2 0 C3.88695626 4.28853694 5.58192622 8.52761347 7 13 C3.37 13 -0.26 13 -4 13 C-3.05610147 8.28050734 -1.73563661 4.45228522 0 0 Z " fill="#E0E6EB" transform="translate(110,131)"/>
<path d="M0 0 C5.82248856 -0.37164821 10.64814628 0.62382055 16 3 C16.66 3.66 17.32 4.32 18 5 C21.58343976 5.16677282 21.58343976 5.16677282 25 5 C22 7 22 7 20 7 C21.20728609 10.51202512 21.20728609 10.51202512 23 14 C25.06890419 15.04289755 25.06890419 15.04289755 27 15 C25.02 15.66 23.04 16.32 21 17 C20.75765625 16.31292969 20.5153125 15.62585938 20.265625 14.91796875 C19.93046875 14.01691406 19.5953125 13.11585938 19.25 12.1875 C18.92515625 11.29417969 18.6003125 10.40085938 18.265625 9.48046875 C16.84766493 6.70144206 15.70264467 5.52691789 13 4 C7.68476467 4.09664064 4.85039409 5.38296312 1 9 C2.37154504 6.04590299 3.98863724 3.55991624 6 1 C3.69 1.33 1.38 1.66 -1 2 C-0.67 1.34 -0.34 0.68 0 0 Z " fill="#DFE1E1" transform="translate(51,120)"/>
<path d="M0 0 C1.54627671 2.31941506 2.86182828 4.52979752 4.125 7 C4.47820312 7.680625 4.83140625 8.36125 5.1953125 9.0625 C6 11 6 11 6 14 C3.525 13.505 3.525 13.505 1 13 C-0.485 8.545 -0.485 8.545 -2 4 C-7.28 4 -12.56 4 -18 4 C-18 3.67 -18 3.34 -18 3 C-12.06 3 -6.12 3 0 3 C0 2.01 0 1.02 0 0 Z " fill="#56708C" transform="translate(121,144)"/>
<path d="M0 0 C0.99 0 1.98 0 3 0 C3.33 2.97 3.66 5.94 4 9 C-1.94 9 -7.88 9 -14 9 C-14 3 -14 3 -13 1 C-12.01 1 -11.02 1 -10 1 C-10.33 2.98 -10.66 4.96 -11 7 C-7.04 7 -3.08 7 1 7 C0.67 4.69 0.34 2.38 0 0 Z " fill="#284B72" transform="translate(209,138)"/>
<path d="M0 0 C0.99 1.32 1.98 2.64 3 4 C3.33 3.01 3.66 2.02 4 1 C5.98 1 7.96 1 10 1 C10 1.66 10 2.32 10 3 C8.68 3 7.36 3 6 3 C6.495 3.5775 6.99 4.155 7.5 4.75 C9 7 9 7 9 11 C6.75 11.75 6.75 11.75 4 12 C1.6875 10.5625 1.6875 10.5625 0 8 C-0.33107933 5.24100561 -0.18642023 2.79630351 0 0 Z " fill="#E0E0DB" transform="translate(40,133)"/>
<path d="M0 0 C1.74909986 6.42269468 1.02755015 11.79062766 -1 18 C-2.98 18 -4.96 18 -7 18 C-5.06375702 11.79522136 -2.74390859 5.89174281 0 0 Z " fill="#476281" transform="translate(102,140)"/>
<path d="M0 0 C6.6 0 13.2 0 20 0 C20 0.33 20 0.66 20 1 C13.73 1 7.46 1 1 1 C1 12.22 1 23.44 1 35 C0.01 35.495 0.01 35.495 -1 36 C-1.33 34.35 -1.66 32.7 -2 31 C-1.34 31 -0.68 31 0 31 C0 20.77 0 10.54 0 0 Z " fill="#D4DEE5" transform="translate(128,122)"/>
<path d="M0 0 C5.32011893 -0.34886026 5.32011893 -0.34886026 8 0 C10 1.875 10 1.875 11 4 C11 4.66 11 5.32 11 6 C8.36 6.66 5.72 7.32 3 8 C0 2.25 0 2.25 0 0 Z " fill="#FAF9F7" transform="translate(71,127)"/>
<path d="M0 0 C8 0 8 0 11 1 C11 2.66666667 11 4.33333333 11 6 C7.37 6 3.74 6 0 6 C0 4.02 0 2.04 0 0 Z " fill="#D2D8DC" transform="translate(185,174)"/>
<path d="M0 0 C2.31 0.33 4.62 0.66 7 1 C7.33 2.65 7.66 4.3 8 6 C4.77208445 8.1519437 3.71599191 8.20086443 0 8 C0 5.36 0 2.72 0 0 Z " fill="#DFE7EC" transform="translate(139,143)"/>
<path d="M0 0 C0.66 0 1.32 0 2 0 C2.8353125 1.2375 2.8353125 1.2375 3.6875 2.5 C5.86024403 5.4132668 5.86024403 5.4132668 9.75 5.3125 C10.8225 5.209375 11.895 5.10625 13 5 C13 4.34 13 3.68 13 3 C13.66 3 14.32 3 15 3 C13.66666667 5.66666667 12.33333333 8.33333333 11 11 C7.20450741 10.45418801 5.69020705 8.94590705 3.25 6.0625 C2.63640625 5.35222656 2.0228125 4.64195312 1.390625 3.91015625 C0 2 0 2 0 0 Z " fill="#C5BEAE" transform="translate(53,143)"/>
<path d="M0 0 C1.99954746 -0.04254356 4.00041636 -0.04080783 6 0 C7 1 7 1 7.125 4 C7 7 7 7 6 8 C4.00041636 8.04080783 1.99954746 8.04254356 0 8 C0 5.36 0 2.72 0 0 Z " fill="#DCE5E9" transform="translate(169,130)"/>
<path d="M0 0 C2.97 0 5.94 0 9 0 C9.38218767 1.65614657 9.71395102 3.32457024 10 5 C9 6 9 6 7.15234375 6.09765625 C5.1015625 6.06510417 3.05078125 6.03255208 1 6 C0.67 4.02 0.34 2.04 0 0 Z " fill="#D2D8DC" transform="translate(210,174)"/>
<path d="M0 0 C1.5625 1.625 1.5625 1.625 1.5625 3.625 C-1.6875 4.3125 -1.6875 4.3125 -5.4375 4.625 C-7.5 3.25 -7.5 3.25 -9.4375 1.625 C-12.58868325 0.90454633 -12.58868325 0.90454633 -15.4375 0.625 C-15.4375 0.295 -15.4375 -0.035 -15.4375 -0.375 C-4.46138797 -2.5166804 -4.46138797 -2.5166804 0 0 Z " fill="#ECEEEE" transform="translate(74.4375,121.375)"/>
<path d="M0 0 C2.97 0.33 5.94 0.66 9 1 C9 2.98 9 4.96 9 7 C6.36 7 3.72 7 1 7 C1.33 5.68 1.66 4.36 2 3 C1.34 2.67 0.68 2.34 0 2 C0 1.34 0 0.68 0 0 Z " fill="#CCD2D6" transform="translate(61,173)"/>
<path d="M0 0 C-0.33 2.97 -0.66 5.94 -1 9 C-5.95 9 -10.9 9 -16 9 C-16.33 8.34 -16.66 7.68 -17 7 C-15.72125 7.04125 -14.4425 7.0825 -13.125 7.125 C-10.98128508 7.24212873 -10.98128508 7.24212873 -9 7 C-8.34 6.34 -7.68 5.68 -7 5 C-7 5.66 -7 6.32 -7 7 C-4.73702265 6.14532959 -4.73702265 6.14532959 -4 3.5 C-2.6 0 -2.6 0 0 0 Z " fill="#4B6684" transform="translate(194,149)"/>
<path d="M0 0 C6.27 0 12.54 0 19 0 C19 0.33 19 0.66 19 1 C17.02 1.33 15.04 1.66 13 2 C15.97 2.33 18.94 2.66 22 3 C22 3.33 22 3.66 22 4 C13.99054432 4.30372936 7.30934715 4.50848663 0 1 C0 0.67 0 0.34 0 0 Z " fill="#C9B591" transform="translate(39,156)"/>
<path d="M0 0 C1.4540625 0.0309375 1.4540625 0.0309375 2.9375 0.0625 C2.6075 2.3725 2.2775 4.6825 1.9375 7.0625 C-0.3725 6.7325 -2.6825 6.4025 -5.0625 6.0625 C-3.98897059 0.08140756 -3.98897059 0.08140756 0 0 Z " fill="#FAFAF8" transform="translate(48.0625,126.9375)"/>
<path d="M0 0 C2 2 2 2 2.25 5 C2 8 2 8 0 10 C-0.33 8.35 -0.66 6.7 -1 5 C-3.97 4.505 -3.97 4.505 -7 4 C-7 6.64 -7 9.28 -7 12 C-5.02 12.495 -5.02 12.495 -3 13 C-4.65 13 -6.3 13 -8 13 C-8 9.7 -8 6.4 -8 3 C-5.36 2.01 -2.72 1.02 0 0 Z " fill="#446081" transform="translate(176,126)"/>
<path d="M0 0 C2.97 0.33 5.94 0.66 9 1 C9 2.98 9 4.96 9 7 C8.01 7 7.02 7 6 7 C6 5.35 6 3.7 6 2 C5.34 2 4.68 2 4 2 C3.67 3.65 3.34 5.3 3 7 C2.34 7 1.68 7 1 7 C0.67 4.69 0.34 2.38 0 0 Z " fill="#CACFD4" transform="translate(247,173)"/>
<path d="M0 0 C1.32 0 2.64 0 4 0 C4.38133299 1.9914056 4.71325582 3.99279077 5 6 C4 7 4 7 1.4375 7.0625 C0.2309375 7.0315625 0.2309375 7.0315625 -1 7 C-1.625 4.625 -1.625 4.625 -2 2 C-1.34 1.34 -0.68 0.68 0 0 Z " fill="#EEF2F3" transform="translate(231,173)"/>
<path d="M0 0 C1.98 0 3.96 0 6 0 C6 2.31 6 4.62 6 7 C4.02 7 2.04 7 0 7 C0 4.69 0 2.38 0 0 Z " fill="#D7DDE1" transform="translate(89,173)"/>
<path d="M0 0 C1.32 0 2.64 0 4 0 C3.67 0.99 3.34 1.98 3 3 C2.01 3 1.02 3 0 3 C0 3.66 0 4.32 0 5 C-2.64 5.33 -5.28 5.66 -8 6 C-8.66 4.68 -9.32 3.36 -10 2 C-6.91600325 1.08622319 -4.20134157 1 -1 1 C-0.67 0.67 -0.34 0.34 0 0 Z " fill="#CBCFD1" transform="translate(66,143)"/>
<path d="M0 0 C0.33 0.66 0.66 1.32 1 2 C2.98 1.67 4.96 1.34 7 1 C6.67 3.31 6.34 5.62 6 8 C3.69 7.67 1.38 7.34 -1 7 C-1.04254356 5.00045254 -1.04080783 2.99958364 -1 1 C-0.67 0.67 -0.34 0.34 0 0 Z " fill="#D7D9D9" transform="translate(76,138)"/>
<path d="M0 0 C2.64 0 5.28 0 8 0 C7.67 1.98 7.34 3.96 7 6 C4.69 6 2.38 6 0 6 C0 4.02 0 2.04 0 0 Z " fill="#BBC5CD" transform="translate(170,174)"/>
<path d="M0 0 C0.33 0 0.66 0 1 0 C1 1.65 1 3.3 1 5 C6.61 5 12.22 5 18 5 C18 5.33 18 5.66 18 6 C12.72 6 7.44 6 2 6 C1.67 7.65 1.34 9.3 1 11 C-0.5625 9.9375 -0.5625 9.9375 -2 8 C-1.55555556 1.55555556 -1.55555556 1.55555556 0 0 Z " fill="#5E7692" transform="translate(194,142)"/>
<path d="M0 0 C2 2 2 2 2.08203125 4.09375 C1.99308594 4.8878125 1.90414062 5.681875 1.8125 6.5 C1.69841797 7.69109375 1.69841797 7.69109375 1.58203125 8.90625 C1 11 1 11 -2 13 C-2.66 12.67 -3.32 12.34 -4 12 C-3.33501617 7.61110675 -1.81242323 4.0188515 0 0 Z " fill="#476180" transform="translate(201,127)"/>
<path d="M0 0 C5.61 0 11.22 0 17 0 C17 0.33 17 0.66 17 1 C10.565 1.495 10.565 1.495 4 2 C4 3.65 4 5.3 4 7 C3.34 7 2.68 7 2 7 C1.34 8.32 0.68 9.64 0 11 C0 7.37 0 3.74 0 0 Z " fill="#2D4D72" transform="translate(161,123)"/>
<path d="M0 0 C3.28670403 3.28670403 5 7.35868331 5 12 C3.35 11.67 1.7 11.34 0 11 C-0.66 9.02 -1.32 7.04 -2 5 C-1.34 4.67 -0.68 4.34 0 4 C0 2.68 0 1.36 0 0 Z " fill="#58708C" transform="translate(265,146)"/>
<path d="M0 0 C2.31 0 4.62 0 7 0 C7.33 1.98 7.66 3.96 8 6 C7.67 5.01 7.34 4.02 7 3 C6.01 3.495 6.01 3.495 5 4 C4.67 4.99 4.34 5.98 4 7 C3.01 7 2.02 7 1 7 C0.67 4.69 0.34 2.38 0 0 Z " fill="#E5E8EA" transform="translate(115,173)"/>
<path d="M0 0 C2.125 0.375 2.125 0.375 4 1 C4 2.65 4 4.3 4 6 C2.35 6.33 0.7 6.66 -1 7 C-1.625 4.625 -1.625 4.625 -2 2 C-1.34 1.34 -0.68 0.68 0 0 Z " fill="#C5CBD0" transform="translate(109,173)"/>
<path d="M0 0 C0.8353125 0.7734375 0.8353125 0.7734375 1.6875 1.5625 C3.94085007 3.29476698 3.94085007 3.29476698 6.75 2.6875 C7.4925 2.460625 8.235 2.23375 9 2 C9.33 3.65 9.66 5.3 10 7 C6.88772805 7 4.05847848 6.54372951 1 6 C0.67 4.02 0.34 2.04 0 0 Z " fill="#CACDCC" transform="translate(41,141)"/>
<path d="M0 0 C1.9375 0.5625 1.9375 0.5625 4 2 C4.75 5.625 4.75 5.625 5 9 C4.01 9 3.02 9 2 9 C1.896875 8.360625 1.79375 7.72125 1.6875 7.0625 C1.460625 6.381875 1.23375 5.70125 1 5 C0.01 4.67 -0.98 4.34 -2 4 C-1.34 3.67 -0.68 3.34 0 3 C0 2.01 0 1.02 0 0 Z " fill="#274D73" transform="translate(261,142)"/>
<path d="M0 0 C2.91517292 1.07401108 4.77810176 1.77810176 7 4 C7.1953125 6.1640625 7.1953125 6.1640625 7.125 8.625 C7.10695312 9.44226563 7.08890625 10.25953125 7.0703125 11.1015625 C7.03550781 12.04128906 7.03550781 12.04128906 7 13 C6.69320312 12.38382813 6.38640625 11.76765625 6.0703125 11.1328125 C5.35410476 9.7056248 4.62213015 8.28624583 3.875 6.875 C3 5 3 5 3 3 C1.35 2.67 -0.3 2.34 -2 2 C-1.34 1.34 -0.68 0.68 0 0 Z " fill="#4F6987" transform="translate(179,124)"/>
<path d="M0 0 C1.5625 1.75 1.5625 1.75 3 4 C2.6875 6.25 2.6875 6.25 2 8 C2 7.34 2 6.68 2 6 C1.34 6 0.68 6 0 6 C0 5.01 0 4.02 0 3 C-0.66 3 -1.32 3 -2 3 C-2 6.63 -2 10.26 -2 14 C-2.33 14 -2.66 14 -3 14 C-3 9.71 -3 5.42 -3 1 C-2.01 0.67 -1.02 0.34 0 0 Z " fill="#4B6685" transform="translate(171,143)"/>
<path d="M0 0 C1.65 0 3.3 0 5 0 C4.75 2.875 4.75 2.875 4 6 C1.9375 7.375 1.9375 7.375 0 8 C0 5.33333333 0 2.66666667 0 0 Z " fill="#19456E" transform="translate(147,128)"/>
<path d="M0 0 C2.84880302 4.27320453 4.28990619 6.78168857 4 12 C3.01 12 2.02 12 1 12 C0.22596442 7.93631321 -0.0984702 4.13574827 0 0 Z " fill="#476281" transform="translate(212,139)"/>
<path d="M0 0 C0.99 0.33 1.98 0.66 3 1 C3 3.97 3 6.94 3 10 C2.01 10 1.02 10 0 10 C0 6.7 0 3.4 0 0 Z " fill="#355475" transform="translate(238,127)"/>
<path d="M0 0 C1.32 0 2.64 0 4 0 C4 1.65 4 3.3 4 5 C2.35 5.33 0.7 5.66 -1 6 C-1.042721 4.33388095 -1.04063832 2.66617115 -1 1 C-0.67 0.67 -0.34 0.34 0 0 Z " fill="#BEC6CD" transform="translate(259,174)"/>
<path d="M0 0 C1.32 0 2.64 0 4 0 C4 2.31 4 4.62 4 7 C2.68 7 1.36 7 0 7 C0 4.69 0 2.38 0 0 Z " fill="#C4CCD2" transform="translate(180,173)"/>
<path d="M0 0 C1.32 0 2.64 0 4 0 C4 1.98 4 3.96 4 6 C2.35 5.67 0.7 5.34 -1 5 C-0.67 3.35 -0.34 1.7 0 0 Z " fill="#BFC6CC" transform="translate(223,174)"/>
<path d="M0 0 C2 2 2 2 2 6 C0.35 6.33 -1.3 6.66 -3 7 C-3.99 5.35 -4.98 3.7 -6 2 C-4.35 2 -2.7 2 -1 2 C-0.67 1.34 -0.34 0.68 0 0 Z " fill="#D8D8D5" transform="translate(47,138)"/>
<path d="M0 0 C2.475 0.495 2.475 0.495 5 1 C4.67 2.65 4.34 4.3 4 6 C2.68 6 1.36 6 0 6 C0 4.02 0 2.04 0 0 Z " fill="#E9EFF2" transform="translate(139,130)"/>
<path d="M0 0 C1.66666667 0 3.33333333 0 5 0 C5 1.98 5 3.96 5 6 C3.35 6 1.7 6 0 6 C0 4.02 0 2.04 0 0 Z " fill="#B1BAC3" transform="translate(136,174)"/>
<path d="M0 0 C0.66 0.99 1.32 1.98 2 3 C1.34 3 0.68 3 0 3 C0 3.99 0 4.98 0 6 C0.99 5.67 1.98 5.34 3 5 C3 6.32 3 7.64 3 9 C1.02 9 -0.96 9 -3 9 C-2.01 6.03 -1.02 3.06 0 0 Z " fill="#70859C" transform="translate(98,149)"/>
<path d="M0 0 C0.99 0.33 1.98 0.66 3 1 C3.33 2.65 3.66 4.3 4 6 C2.02 6 0.04 6 -2 6 C-1.125 1.125 -1.125 1.125 0 0 Z " fill="#B8C0C7" transform="translate(204,174)"/>
<path d="M0 0 C0.66 0 1.32 0 2 0 C1.67 2.31 1.34 4.62 1 7 C1.66 7.33 2.32 7.66 3 8 C1.35 8.66 -0.3 9.32 -2 10 C-1.125 2.25 -1.125 2.25 0 0 Z " fill="#1F486F" transform="translate(104,138)"/>
<path d="M0 0 C0.79148437 0.10957031 1.58296875 0.21914062 2.3984375 0.33203125 C3.59339844 0.47705078 3.59339844 0.47705078 4.8125 0.625 C5.78316406 0.88216797 5.78316406 0.88216797 6.7734375 1.14453125 C7.1034375 1.80453125 7.4334375 2.46453125 7.7734375 3.14453125 C7.1134375 3.80453125 6.4534375 4.46453125 5.7734375 5.14453125 C4.7834375 4.48453125 3.7934375 3.82453125 2.7734375 3.14453125 C0.71634154 2.90397657 0.71634154 2.90397657 -1.4140625 3.01953125 C-2.6721875 3.06078125 -3.9303125 3.10203125 -5.2265625 3.14453125 C-3.52030618 1.01446288 -2.78423215 0.18073086 0 0 Z " fill="#DEE0DF" transform="translate(58.2265625,137.85546875)"/>
<path d="M0 0 C0.66 0.33 1.32 0.66 2 1 C2.4140625 3.06640625 2.4140625 3.06640625 2.625 5.5625 C2.69976562 6.38878906 2.77453125 7.21507812 2.8515625 8.06640625 C2.90054688 8.70449219 2.94953125 9.34257812 3 10 C2.01 9.67 1.02 9.34 0 9 C-1.1875 5.9375 -1.1875 5.9375 -2 3 C-1.34 3 -0.68 3 0 3 C0 2.01 0 1.02 0 0 Z " fill="#3E5A7B" transform="translate(206,127)"/>
<path d="M0 0 C0.66 0 1.32 0 2 0 C1.67 0.99 1.34 1.98 1 3 C0.01 3 -0.98 3 -2 3 C-2.66 4.32 -3.32 5.64 -4 7 C-5.5 5.625 -5.5 5.625 -7 4 C-7 3.34 -7 2.68 -7 2 C-4.69 2 -2.38 2 0 2 C0 1.34 0 0.68 0 0 Z " fill="#C1C3C1" transform="translate(66,146)"/>
<path d="M0 0 C1.32 0 2.64 0 4 0 C4 0.66 4 1.32 4 2 C3.01 2 2.02 2 1 2 C1 3.32 1 4.64 1 6 C1.66 6.33 2.32 6.66 3 7 C1.68 7 0.36 7 -1 7 C-1.625 5.1875 -1.625 5.1875 -2 3 C-1.34 2.01 -0.68 1.02 0 0 Z " fill="#C4C9CE" transform="translate(102,173)"/>
<path d="M0 0 C1.32 0 2.64 0 4 0 C4 1.65 4 3.3 4 5 C2.68 5.33 1.36 5.66 0 6 C0 4.02 0 2.04 0 0 Z " fill="#AAB2BB" transform="translate(41,174)"/>
<path d="M0 0 C0.66 0 1.32 0 2 0 C6 4.47058824 6 4.47058824 6 7 C4.68 7 3.36 7 2 7 C0 4 0 4 0 0 Z " fill="#B99F6E" transform="translate(53,146)"/>
<path d="M0 0 C1.32 0 2.64 0 4 0 C4 1.65 4 3.3 4 5 C2.68 5.33 1.36 5.66 0 6 C0 4.02 0 2.04 0 0 Z " fill="#B2B9C0" transform="translate(47,174)"/>
<path d="M0 0 C1.98 0.495 1.98 0.495 4 1 C3.01 1.495 3.01 1.495 2 2 C2.33 2.33 2.66 2.66 3 3 C3.66 3 4.32 3 5 3 C5 3.99 5 4.98 5 6 C2.03 5.505 2.03 5.505 -1 5 C-0.67 3.35 -0.34 1.7 0 0 Z " fill="#B5BCC3" transform="translate(148,174)"/>
<path d="M0 0 C0.99 0 1.98 0 3 0 C3 0.66 3 1.32 3 2 C2.01 2.495 2.01 2.495 1 3 C1 3.66 1 4.32 1 5 C1.66 5.66 2.32 6.32 3 7 C1.35 6.67 -0.3 6.34 -2 6 C-1.125 1.125 -1.125 1.125 0 0 Z " fill="#C2C8CD" transform="translate(231,173)"/>
<path d="M0 0 C1.32 0 2.64 0 4 0 C4 1.65 4 3.3 4 5 C2.68 5 1.36 5 0 5 C0 3.35 0 1.7 0 0 Z " fill="#ABB4BE" transform="translate(186,174)"/>
<path d="M0 0 C1.32 0 2.64 0 4 0 C4 1.32 4 2.64 4 4 C3.34 4 2.68 4 2 4 C2 4.66 2 5.32 2 6 C1.34 6 0.68 6 0 6 C0 4.02 0 2.04 0 0 Z " fill="#ABB4BD" transform="translate(155,174)"/>
<path d="M0 0 C2.5 1.3125 2.5 1.3125 5 3 C5 3.99 5 4.98 5 6 C3.68 6 2.36 6 1 6 C0.67 4.02 0.34 2.04 0 0 Z " fill="#4C6481" transform="translate(122,152)"/>
<path d="M0 0 C0.99 0.66 1.98 1.32 3 2 C2.67 3.32 2.34 4.64 2 6 C0.68 5.67 -0.64 5.34 -2 5 C-1.125 1.125 -1.125 1.125 0 0 Z " fill="#1F486F" transform="translate(254,125)"/>
<path d="M0 0 C-0.66 1.32 -1.32 2.64 -2 4 C-3.65 4 -5.3 4 -7 4 C-7 3.34 -7 2.68 -7 2 C-4 0 -4 0 0 0 Z " fill="#F6F7F8" transform="translate(57,121)"/>
<path d="M0 0 C1.32 0 2.64 0 4 0 C4.33 1.65 4.66 3.3 5 5 C3.35 4.67 1.7 4.34 0 4 C0 2.68 0 1.36 0 0 Z " fill="#EFF2F2" transform="translate(103,175)"/>
<path d="M0 0 C0.99 0.33 1.98 0.66 3 1 C3.33 2.65 3.66 4.3 4 6 C2.35 5.67 0.7 5.34 -1 5 C-0.67 3.35 -0.34 1.7 0 0 Z " fill="#AEB6BE" transform="translate(242,174)"/>
<path d="M0 0 C2.475 0.495 2.475 0.495 5 1 C5 2.32 5 3.64 5 5 C3.35 5 1.7 5 0 5 C0 3.35 0 1.7 0 0 Z " fill="#A5AFB9" transform="translate(89,174)"/>
<path d="M0 0 C0.66 0.66 1.32 1.32 2 2 C4.06874034 2.6425235 4.06874034 2.6425235 6 3 C6 3.66 6 4.32 6 5 C3.36 5.33 0.72 5.66 -2 6 C-1.34 4.02 -0.68 2.04 0 0 Z " fill="#C5C4BC" transform="translate(73,145)"/>
<path d="M0 0 C0.33 0.66 0.66 1.32 1 2 C0.34 2 -0.32 2 -1 2 C-1.66 3.65 -2.32 5.3 -3 7 C-3.99 7 -4.98 7 -6 7 C-4.52307692 2.32307692 -4.52307692 2.32307692 -1.875 0.6875 C-1.25625 0.460625 -0.6375 0.23375 0 0 Z " fill="#C7B89B" transform="translate(78,134)"/>
<path d="M0 0 C0 0.99 0 1.98 0 3 C-3.3 2.67 -6.6 2.34 -10 2 C-10 1.67 -10 1.34 -10 1 C-6.59437148 0.22157062 -3.49234244 -0.09978121 0 0 Z " fill="#385475" transform="translate(237,124)"/>
<path d="M0 0 C1.65 0 3.3 0 5 0 C5 1.32 5 2.64 5 4 C3.0625 3.6875 3.0625 3.6875 1 3 C0.67 2.01 0.34 1.02 0 0 Z " fill="#F7F8F9" transform="translate(67,122)"/>
<path d="M0 0 C0.99 0 1.98 0 3 0 C3 1.98 3 3.96 3 6 C2.01 6 1.02 6 0 6 C0 4.02 0 2.04 0 0 Z " fill="#C1C9CF" transform="translate(116,174)"/>
<path d="M0 0 C0.99 0 1.98 0 3 0 C3 1.65 3 3.3 3 5 C1.68 5 0.36 5 -1 5 C-0.67 3.35 -0.34 1.7 0 0 Z " fill="#AFB8C1" transform="translate(83,174)"/>
<path d="M0 0 C1.5 1.375 1.5 1.375 3 3 C3 3.66 3 4.32 3 5 C1.35 5.33 -0.3 5.66 -2 6 C-1.125 1.125 -1.125 1.125 0 0 Z " fill="#ADB6BE" transform="translate(56,174)"/>
<path d="M0 0 C0.33 0.66 0.66 1.32 1 2 C0.0625 4.125 0.0625 4.125 -1 6 C-2.32 6 -3.64 6 -5 6 C-4.67 4.35 -4.34 2.7 -4 1 C-3.67 1.99 -3.34 2.98 -3 4 C-2.34 4 -1.68 4 -1 4 C-0.67 2.68 -0.34 1.36 0 0 Z " fill="#657A93" transform="translate(244,152)"/>
<path d="M0 0 C0.99 0 1.98 0 3 0 C3.33 1.65 3.66 3.3 4 5 C2.68 5 1.36 5 0 5 C0 3.35 0 1.7 0 0 Z " fill="#4B6585" transform="translate(266,153)"/>
<path d="M0 0 C0.598125 0.20625 1.19625 0.4125 1.8125 0.625 C0.1625 1.945 -1.4875 3.265 -3.1875 4.625 C-3.8475 3.635 -4.5075 2.645 -5.1875 1.625 C-2.1875 -0.375 -2.1875 -0.375 0 0 Z " fill="#18456F" transform="translate(180.1875,136.375)"/>
<path d="M0 0 C0.99 0.33 1.98 0.66 3 1 C2.67 2.32 2.34 3.64 2 5 C1.34 4.67 0.68 4.34 0 4 C0 4.99 0 5.98 0 7 C-0.66 7 -1.32 7 -2 7 C-1.34 4.69 -0.68 2.38 0 0 Z " fill="#BFCBD5" transform="translate(253,131)"/>
<path d="M0 0 C0.99 0.33 1.98 0.66 3 1 C3.6875 3.0625 3.6875 3.0625 4 5 C2.68 5.33 1.36 5.66 0 6 C0 4.02 0 2.04 0 0 Z " fill="#B6BEC5" transform="translate(216,174)"/>
<path d="M0 0 C1.32 0.33 2.64 0.66 4 1 C4 2.65 4 4.3 4 6 C3.67 5.34 3.34 4.68 3 4 C2.01 4.33 1.02 4.66 0 5 C0 3.35 0 1.7 0 0 Z " fill="#A6AFB9" transform="translate(266,174)"/>
<path d="M0 0 C1.65 0 3.3 0 5 0 C4.67 1.65 4.34 3.3 4 5 C3.34 5 2.68 5 2 5 C2 4.34 2 3.68 2 3 C1.34 3 0.68 3 0 3 C0 2.01 0 1.02 0 0 Z " fill="#ACB4BD" transform="translate(173,174)"/>
<path d="M0 0 C2 1 2 1 4 3 C4.36933645 5.75372909 4.18336678 8.20365661 4 11 C3.67 11 3.34 11 3 11 C3 8.69 3 6.38 3 4 C2.01 4 1.02 4 0 4 C0 2.68 0 1.36 0 0 Z " fill="#4C6482" transform="translate(152,140)"/>
<path d="M0 0 C0.99 0 1.98 0 3 0 C3.33 1.65 3.66 3.3 4 5 C3.01 4.67 2.02 4.34 1 4 C0.01 4.66 -0.98 5.32 -2 6 C-1.34 4.02 -0.68 2.04 0 0 Z " fill="#73879D" transform="translate(253,122)"/>
</svg>
